<svg width="242" height="115" viewBox="0 0 242 115" fill="none" xmlns="http://www.w3.org/2000/svg">
<path d="M144.985 107.162L122.402 96.1184C121.518 95.6863 120.483 95.6863 119.6 96.1184L97.0162 107.162C96.1683 107.576 95.1797 106.959 95.1797 106.015V45.6411H146.822V106.015C146.822 106.959 145.833 107.576 144.985 107.162Z" fill="#7B37DB"/>
<path d="M136.831 114.603L122.402 107.547C121.518 107.115 120.484 107.115 119.6 107.547L105.17 114.603C104.323 115.018 103.334 114.4 103.334 113.458V40.4735H138.668V113.458C138.668 114.4 137.679 115.018 136.831 114.603Z" fill="#9944EA"/>
<path d="M120.999 -0.0017395C97.4793 -0.0017395 78.4121 19.0647 78.4121 42.5847C78.4121 66.1054 97.4793 85.1719 120.999 85.1719C144.52 85.1719 163.586 66.1054 163.586 42.5847C163.586 19.0647 144.52 -0.0017395 120.999 -0.0017395Z" fill="#FFD83D"/>
<path d="M121.001 79.1992C100.779 79.1992 84.3867 62.806 84.3867 42.5841C84.3867 22.3629 100.779 5.96962 121.001 5.96962C141.223 5.96962 157.616 22.3629 157.616 42.5841C157.616 62.806 141.223 79.1992 121.001 79.1992ZM121.001 7.7351C101.755 7.7351 86.1522 23.3374 86.1522 42.5841C86.1522 61.8307 101.755 77.433 121.001 77.433C140.247 77.433 155.849 61.8307 155.849 42.5841C155.849 23.3374 140.247 7.7351 121.001 7.7351Z" fill="#FFB725"/>
<path d="M121.001 77.4297C101.755 77.4297 86.1523 61.8273 86.1523 42.5807C86.1523 23.3341 101.755 7.73177 121.001 7.73177C140.247 7.73177 155.85 23.3341 155.85 42.5807C155.85 61.8273 140.247 77.4297 121.001 77.4297ZM121.001 14.5566C120.187 14.5566 119.374 14.7698 118.646 15.1956L111.968 19.1079C111.6 19.324 111.203 19.4879 110.79 19.5956L103.303 21.5518C101.672 21.9775 100.398 23.2511 99.9716 24.8822L98.0161 32.3706C97.9085 32.7836 97.7438 33.1798 97.5285 33.5478L93.6161 40.2256C92.764 41.6808 92.764 43.4814 93.6161 44.9359L97.5285 51.6137C97.7438 51.9824 97.9085 52.3786 98.0161 52.7916L99.9716 60.28C100.398 61.9111 101.672 63.1847 103.303 63.6105L110.79 65.5666C111.203 65.6743 111.6 65.8383 111.968 66.0543L118.646 69.9659C119.374 70.3924 120.187 70.6056 121.001 70.6056C121.815 70.6056 122.63 70.3924 123.356 69.9659L130.034 66.0543C130.402 65.8383 130.799 65.6743 131.212 65.5666L138.7 63.6105C140.332 63.1847 141.605 61.9111 142.031 60.28L143.986 52.7916C144.094 52.3786 144.259 51.9824 144.474 51.6137L148.387 44.9359C149.239 43.4814 149.239 41.6808 148.387 40.2256L144.474 33.5478C144.259 33.1798 144.094 32.7836 143.986 32.3706L142.031 24.8822C141.605 23.2511 140.332 21.9775 138.7 21.5518L131.212 19.5956C130.799 19.4879 130.402 19.324 130.034 19.1079L123.356 15.1956C122.63 14.7698 121.815 14.5566 121.001 14.5566Z" fill="#FF9517"/>
<path d="M123.356 15.1999L130.034 19.1123C130.402 19.3283 130.799 19.4922 131.212 19.5999L138.699 21.5561C140.331 21.9818 141.604 23.2554 142.031 24.8865L143.986 32.3749C144.094 32.788 144.258 33.1841 144.474 33.5522L148.386 40.2299C149.238 41.6851 149.238 43.4858 148.386 44.9402L144.474 51.618C144.258 51.9867 144.094 52.3829 143.986 52.796L142.031 60.2843C141.604 61.9154 140.331 63.1891 138.699 63.6148L131.212 65.571C130.799 65.6786 130.402 65.8426 130.034 66.0586L123.356 69.9703C121.902 70.8224 120.1 70.8224 118.646 69.9703L111.968 66.0586C111.6 65.8426 111.203 65.6786 110.79 65.571L103.302 63.6148C101.671 63.1891 100.398 61.9154 99.9711 60.2843L98.0157 52.796C97.908 52.3829 97.7433 51.9867 97.528 51.618L93.6157 44.9402C92.7635 43.4858 92.7635 41.6851 93.6157 40.2299L97.528 33.5522C97.7433 33.1841 97.908 32.788 98.0157 32.3749L99.9711 24.8865C100.398 23.2554 101.671 21.9818 103.302 21.5561L110.79 19.5999C111.203 19.4922 111.6 19.3283 111.968 19.1123L118.646 15.1999C120.1 14.3485 121.902 14.3485 123.356 15.1999Z" fill="#FFD83D"/>
<path d="M54.165 57.375H48.2324V51.4424H54.165V57.375Z" fill="#FF66B5"/>
<path d="M175.354 86.1406H169.422V80.2081H175.354V86.1406Z" fill="#54FFA9"/>
<path d="M35.2942 89.7704L31.0996 93.9656L35.2942 98.1602L39.4894 93.9656L35.2942 89.7704Z" fill="#7DCDFF"/>
<path d="M217.77 33.2313L213.576 37.4258L217.77 41.6211L221.965 37.4258L217.77 33.2313Z" fill="#FFE082"/>
<path d="M197.561 58.4609H195.963V54.4099H197.561V58.4609Z" fill="#7DCDFF"/>
<path d="M197.561 70.4766H195.963V66.4249H197.561V70.4766Z" fill="#7DCDFF"/>
<path d="M192.915 61.1445L189.406 59.1187L190.206 57.736L193.714 59.7618L192.915 61.1445Z" fill="#7DCDFF"/>
<path d="M203.321 67.1523L199.812 65.1265L200.612 63.7431L204.12 65.7696L203.321 67.1523Z" fill="#7DCDFF"/>
<path d="M190.206 67.1523L189.406 65.7696L192.915 63.7431L193.714 65.1265L190.206 67.1523Z" fill="#7DCDFF"/>
<path d="M200.612 61.1445L199.812 59.7618L203.321 57.736L204.12 59.1187L200.612 61.1445Z" fill="#7DCDFF"/>
<path d="M208.164 92.7344H206.566V88.6827H208.164V92.7344Z" fill="#FF66B5"/>
<path d="M208.164 104.754H206.566V100.703H208.164V104.754Z" fill="#FF66B5"/>
<path d="M203.517 95.4219L200.008 93.396L200.806 92.0133L204.315 94.0385L203.517 95.4219Z" fill="#FF66B5"/>
<path d="M213.923 101.426L210.414 99.3992L211.213 98.0165L214.721 100.042L213.923 101.426Z" fill="#FF66B5"/>
<path d="M200.806 101.426L200.008 100.042L203.517 98.0165L204.315 99.3992L200.806 101.426Z" fill="#FF66B5"/>
<path d="M211.213 95.4219L210.414 94.0385L213.923 92.0133L214.721 93.396L211.213 95.4219Z" fill="#FF66B5"/>
<path d="M66.029 71.1953H64.4316V67.1436H66.029V71.1953Z" fill="#BA8FFA"/>
<path d="M66.029 83.2109H64.4316V79.1585H66.029V83.2109Z" fill="#BA8FFA"/>
<path d="M61.3815 73.8789L57.873 71.8538L58.6717 70.4696L62.1802 72.4955L61.3815 73.8789Z" fill="#BA8FFA"/>
<path d="M71.7878 79.8867L68.2793 77.8609L69.078 76.4775L72.5864 78.5033L71.7878 79.8867Z" fill="#BA8FFA"/>
<path d="M58.6717 79.8867L57.873 78.5033L61.3815 76.4775L62.1802 77.8609L58.6717 79.8867Z" fill="#BA8FFA"/>
<path d="M69.078 73.8789L68.2793 72.4955L71.7878 70.4696L72.5864 71.8538L69.078 73.8789Z" fill="#BA8FFA"/>
<path d="M22.402 37.6367H20.8047V33.585H22.402V37.6367Z" fill="#FFE082"/>
<path d="M22.402 49.6562H20.8047V45.6045H22.402V49.6562Z" fill="#FFE082"/>
<path d="M17.7526 40.3203L14.2441 38.2945L15.0428 36.9111L18.552 38.9369L17.7526 40.3203Z" fill="#FFE082"/>
<path d="M28.1615 46.332L24.6523 44.3062L25.451 42.9228L28.9602 44.9486L28.1615 46.332Z" fill="#FFE082"/>
<path d="M15.0428 46.332L14.2441 44.9486L17.7526 42.9228L18.552 44.3062L15.0428 46.332Z" fill="#FFE082"/>
<path d="M25.451 40.3203L24.6523 38.9369L28.1615 36.9111L28.9602 38.2945L25.451 40.3203Z" fill="#FFE082"/>
<path d="M47.8771 10.1362C46.0447 10.1362 44.5544 11.6266 44.5544 13.4589C44.5544 15.2912 46.0447 16.7816 47.8771 16.7816C49.7094 16.7816 51.1998 15.2912 51.1998 13.4589C51.1998 11.6266 49.7094 10.1362 47.8771 10.1362ZM47.8771 18.3789C45.1644 18.3789 42.957 16.1722 42.957 13.4589C42.957 10.7456 45.1644 8.53888 47.8771 8.53888C50.5897 8.53888 52.7971 10.7456 52.7971 13.4589C52.7971 16.1722 50.5897 18.3789 47.8771 18.3789Z" fill="#7DCDFF"/>
<path d="M237.08 58.633C235.247 58.633 233.757 60.1233 233.757 61.9557C233.757 63.7873 235.247 65.2777 237.08 65.2777C238.912 65.2777 240.403 63.7873 240.403 61.9557C240.403 60.1233 238.912 58.633 237.08 58.633ZM237.08 66.875C234.366 66.875 232.16 64.6683 232.16 61.9557C232.16 59.2423 234.366 57.0357 237.08 57.0357C239.793 57.0357 241.999 59.2423 241.999 61.9557C241.999 64.6683 239.793 66.875 237.08 66.875Z" fill="#BA8FFA"/>
<path d="M187.252 14.258C185.42 14.258 183.93 15.7476 183.93 17.58C183.93 19.4116 185.42 20.902 187.252 20.902C189.084 20.902 190.575 19.4116 190.575 17.58C190.575 15.7476 189.084 14.258 187.252 14.258ZM187.252 22.5C184.539 22.5 182.332 20.2926 182.332 17.58C182.332 14.8667 184.539 12.66 187.252 12.66C189.965 12.66 192.173 14.8667 192.173 17.58C192.173 20.2926 189.965 22.5 187.252 22.5Z" fill="#FF66B5"/>
<path d="M4.92073 70.1486C3.08839 70.1486 1.59802 71.6389 1.59802 73.4706C1.59802 75.3029 3.08839 76.7933 4.92073 76.7933C6.75237 76.7933 8.24273 75.3029 8.24273 73.4706C8.24273 71.6389 6.75237 70.1486 4.92073 70.1486ZM4.92073 78.3906C2.20741 78.3906 0 76.1839 0 73.4706C0 70.758 2.20741 68.5506 4.92073 68.5506C7.63336 68.5506 9.84004 70.758 9.84004 73.4706C9.84004 76.1839 7.63336 78.3906 4.92073 78.3906Z" fill="#54FFA9"/>
<path d="M128.533 56.4922C128.187 56.4922 127.831 56.4127 127.486 56.2375L121.785 53.3468C121.538 53.2222 121.269 53.1596 121 53.1596C120.73 53.1596 120.462 53.2222 120.215 53.3468L114.514 56.2375C114.169 56.4127 113.813 56.4922 113.467 56.4922C112.128 56.4922 110.95 55.2967 111.181 53.8154L112.168 47.5008C112.254 46.954 112.073 46.3995 111.683 46.0076L107.173 41.4795C105.842 40.1425 106.583 37.8592 108.446 37.5608L114.756 36.5482C115.303 36.461 115.775 36.1183 116.027 35.6257L118.94 29.9366C119.37 29.0964 120.185 28.6771 121 28.6771C121.816 28.6771 122.63 29.0964 123.06 29.9366L125.973 35.6257C126.225 36.1183 126.697 36.461 127.243 36.5482L133.554 37.5608C135.417 37.8592 136.158 40.1425 134.827 41.4795L130.316 46.0076C129.927 46.3995 129.747 46.954 129.832 47.5008L130.819 53.8154C131.05 55.2967 129.871 56.4922 128.533 56.4922Z" fill="#FFB027"/>
</svg>
